HIERARCHY
ROOT Hips
{
	OFFSET 0.000000 0.000000 0.000000 
	CHANNELS 6 Xposition Yposition Zposition Zrotation Yrotation Xrotation
	JOINT LeftUpLeg
	{
		OFFSET 1.363060 -1.794630 0.839290 
		CHANNELS 3 Zrotation Yrotation Xrotation
		JOINT LeftLeg
		{
			OFFSET 2.448110 -6.726130 0.000000 
			CHANNELS 3 Zrotation Yrotation Xrotation
			JOINT LeftFoot
			{
				OFFSET 2.562200 -7.039590 0.000000 
				CHANNELS 3 Zrotation Yrotation Xrotation
				JOINT LeftToeBase
				{
					OFFSET 0.157640 -0.433110 2.322550 
					CHANNELS 3 Zrotation Yrotation Xrotation
					End Site
					{
						OFFSET 0.000000 0.000000 0.000000 
					}
				}
			}
		}
	}
	JOINT RightUpLeg
	{
		OFFSET -1.305520 -1.794630 0.839290 
		CHANNELS 3 Zrotation Yrotation Xrotation
		JOINT RightLeg
		{
			OFFSET -2.542530 -6.985550 0.000000 
			CHANNELS 3 Zrotation Yrotation Xrotation
			JOINT RightFoot
			{
				OFFSET -2.568260 -7.056230 0.000000 
				CHANNELS 3 Zrotation Yrotation Xrotation
				JOINT RightToeBase
				{
					OFFSET -0.164730 -0.452590 2.363150 
					CHANNELS 3 Zrotation Yrotation Xrotation
					End Site
					{
						OFFSET 0.000000 0.000000 0.000000 
					}
				}
			}
		}
	}
	JOINT Spine
	{
		OFFSET 0.028270 2.035590 -0.193380 
		CHANNELS 3 Zrotation Yrotation Xrotation
		JOINT Spine1
		{
			OFFSET 0.056720 2.048850 -0.042750 
			CHANNELS 3 Zrotation Yrotation Xrotation
			JOINT Neck1
			{
				OFFSET -0.054170 1.746240 0.172020 
				CHANNELS 3 Zrotation Yrotation Xrotation
				JOINT Head
				{
					OFFSET 0.104070 1.761360 -0.123970 
					CHANNELS 3 Zrotation Yrotation Xrotation
					End Site
					{
						OFFSET 0.000000 0.000000 0.000000 
					}
				}
			}
			JOINT LeftArm
			{
				OFFSET 3.362410 1.200890 -0.311210 
				CHANNELS 3 Zrotation Yrotation Xrotation
				JOINT LeftForeArm
				{
					OFFSET 4.983000 -0.000000 -0.000000 
					CHANNELS 3 Zrotation Yrotation Xrotation
					JOINT LeftHand
					{
						OFFSET 3.483560 -0.000000 -0.000000 
						CHANNELS 3 Zrotation Yrotation Xrotation
						JOINT LeftHandIndex1
						{
							OFFSET 0.715260 -0.000000 -0.000000 
							CHANNELS 3 Zrotation Yrotation Xrotation
							End Site
							{
								OFFSET 0.000000 0.000000 0.000000 
							}
						}
					}
				}
			}
			JOINT RightArm
			{
				OFFSET -3.136600 1.374050 -0.404650 
				CHANNELS 3 Zrotation Yrotation Xrotation
				JOINT RightForeArm
				{
					OFFSET -5.241900 -0.000000 -0.000000 
					CHANNELS 3 Zrotation Yrotation Xrotation
					JOINT RightHand
					{
						OFFSET -3.444170 -0.000000 -0.000000 
						CHANNELS 3 Zrotation Yrotation Xrotation
						JOINT RightHandIndex1
						{
							OFFSET -0.622530 -0.000000 -0.000000 
							CHANNELS 3 Zrotation Yrotation Xrotation
							End Site
							{
								OFFSET 0.000000 0.000000 0.000000 
							}
						}
					}
				}
			}
		}
	}
}
MOTION
Frames: 9
Frame Time: 0.041667
8.462785 18.201563 -45.063210 -1.278295 13.440284 9.039353 -13.468162 -27.969384 -7.670898 -1.944843 9.169602 25.258715 -3.618054 11.918914 -3.804461 1.720200 -8.257200 -23.498100 28.687211 22.364448 -3.070390 3.610855 -7.643375 23.172542 5.474676 -32.040361 -40.315843 -2.964500 -10.637300 31.066200 0.984347 2.174120 -2.167798 -4.610233 0.866333 -11.921471 14.064751 -9.409040 10.518897 2.939800 -4.307500 4.130800 -84.050153 20.543640 28.251500 21.818094 -21.259061 -5.539439 2.239267 0.640648 19.596942 -7.125000 0.000000 0.000000 83.925699 -20.329348 45.540252 -19.238888 22.000505 -5.593894 1.318097 0.335941 24.122304 7.125000 0.000000 0.000000 
8.476633 18.201563 -45.080016 -1.423759 13.509291 9.097701 -13.227497 -27.712671 -8.001872 -1.933714 9.193975 25.278577 -3.673195 12.037668 -3.645863 2.061400 -8.992700 -25.772600 28.774014 22.604867 -3.039612 3.640105 -7.602918 23.045003 5.469805 -32.144158 -40.471237 -2.952600 -10.618000 31.002100 0.964146 2.376912 -2.040472 -4.668309 0.967488 -11.763758 14.058593 -9.630608 10.442306 2.903900 -4.415400 4.120600 -84.105040 21.261516 28.698163 22.231528 -21.679154 -5.710234 2.186035 0.689383 17.845286 -7.125000 0.000000 0.000000 84.063901 -19.888743 45.112029 -19.509971 22.332563 -5.692795 1.308026 0.362013 23.252440 7.125000 0.000000 0.000000 
8.490007 18.194817 -45.095876 -1.439682 13.666906 9.081231 -13.150737 -27.401625 -8.252336 -1.923704 9.215271 25.315927 -3.562383 11.791564 -3.446872 2.377000 -9.610700 -27.725100 28.815546 23.246765 -2.717382 3.696670 -7.533306 22.912938 5.052712 -31.888347 -41.421330 -3.145200 -10.926500 32.032300 1.078062 2.411688 -1.795565 -4.589180 1.007384 -11.580403 14.131471 -9.710427 10.345878 2.935500 -4.460500 4.109400 -84.459332 21.900631 28.880063 22.617060 -22.041023 -5.848600 2.107363 0.748205 16.182131 -7.125000 0.000000 0.000000 83.996965 -19.398466 44.647053 -19.795188 22.673389 -5.794891 1.304132 0.375433 22.530530 7.125000 0.000000 0.000000 
8.502908 18.185822 -45.113156 -1.434269 13.849193 8.997762 -13.104181 -27.199186 -8.349745 -1.922058 9.220171 25.333011 -3.271997 11.155560 -3.350070 2.403300 -9.660000 -27.882500 28.874329 23.533327 -2.482396 3.734808 -7.490557 22.863158 4.625689 -31.552427 -42.262528 -3.440400 -11.376000 33.558700 0.657595 2.461529 -1.918403 -4.839936 1.010520 -11.792012 14.244942 -9.873932 10.299741 2.938800 -4.535900 4.056100 -84.313045 23.001719 29.473563 23.130914 -22.540157 -6.048055 2.015875 0.807738 14.559828 -7.125000 0.000000 0.000000 84.588456 -19.155115 43.695080 -19.984114 22.901851 -5.849100 1.302879 0.384249 22.144182 7.125000 0.000000 0.000000 
8.514388 18.177418 -45.132685 -1.485735 13.949313 8.897481 -13.067134 -27.018753 -8.427814 -1.929182 9.203968 25.299569 -3.127570 10.836164 -3.274168 2.398300 -9.650600 -27.852600 28.886555 23.315878 -2.563639 3.733947 -7.501177 22.897544 4.592204 -31.552620 -42.359587 -3.525000 -11.499900 33.985200 0.905844 2.374841 -1.660355 -4.711174 0.988469 -11.732786 14.271008 -9.812023 10.350161 2.968200 -4.502300 4.122500 -84.899169 23.562339 29.149159 23.400789 -22.804812 -6.179655 1.980033 0.851562 13.442153 -7.125000 0.000000 0.000000 84.405816 -18.577673 43.163208 -20.156966 23.109271 -5.913828 1.300288 0.387342 21.854728 7.125000 0.000000 0.000000 
8.525159 18.169962 -45.150438 -1.481233 13.990532 8.862057 -13.135358 -26.866631 -8.495686 -1.946257 9.185589 25.237170 -3.252976 11.109037 -3.249729 2.581800 -9.985100 -28.928500 28.830690 23.250187 -2.666573 3.725789 -7.524041 22.927597 4.835955 -32.035335 -42.258893 -3.338400 -11.223700 33.038000 1.313280 2.388212 -1.361017 -4.397854 1.040115 -11.572978 14.065050 -9.794350 10.354812 2.907700 -4.500000 4.159700 -85.541823 23.880431 28.967340 23.459403 -22.846186 -6.226247 1.980089 0.872047 12.771997 -7.125000 0.000000 0.000000 84.216119 -18.030010 42.235244 -20.289302 23.262600 -5.958721 1.300990 0.377031 22.047246 7.125000 0.000000 0.000000 
8.538415 18.166056 -45.164759 -1.373980 14.052886 8.830244 -13.348601 -26.859892 -8.420667 -1.975320 9.167433 25.159587 -3.656773 12.003169 -3.478616 3.041900 -10.762500 -31.483000 28.734125 23.375644 -2.640424 3.722855 -7.539141 22.956136 5.019811 -32.531784 -42.362438 -3.257700 -11.101000 32.621100 1.485555 2.401436 -1.192585 -4.185010 1.082166 -11.518845 13.928112 -9.766646 10.298354 2.869500 -4.496600 4.137200 -85.985743 24.403140 29.052196 23.617197 -22.979052 -6.297511 1.974622 0.868476 12.238818 -7.125000 0.000000 0.000000 84.209822 -17.518259 41.389223 -20.293564 23.267545 -5.947027 1.308632 0.366733 22.124912 7.125000 0.000000 0.000000 
8.554629 18.162624 -45.179317 -1.293778 14.028460 8.732028 -13.537841 -26.857788 -8.248102 -2.010058 9.142177 25.073672 -3.955176 12.673821 -3.805423 3.331500 -11.213300 -33.002600 28.671725 23.308802 -2.606786 3.710010 -7.564998 23.058961 4.886950 -32.361920 -42.532143 -3.455000 -11.397500 33.632600 1.087138 2.411212 -1.361056 -4.414722 1.063103 -11.827683 13.884018 -9.782133 10.411849 2.827100 -4.494000 4.134000 -86.022792 25.241098 29.114800 23.756585 -23.102376 -6.363446 1.986899 0.857026 11.895415 -7.125000 0.000000 0.000000 84.732091 -17.167488 40.597944 -20.239808 23.213354 -5.916223 1.310929 0.369316 22.115572 7.125000 0.000000 0.000000 
8.570844 18.158837 -45.195650 -1.292256 13.909475 8.653677 -13.640716 -26.872362 -8.097797 -2.048161 9.097915 24.961545 -4.037948 12.864070 -4.110109 3.427500 -11.356900 -33.493400 28.580649 23.050288 -2.764184 3.675972 -7.626471 23.239750 4.660749 -31.776340 -42.450022 -3.710800 -11.765300 34.906800 0.898839 2.432659 -1.446606 -4.548739 1.056393 -12.028628 13.733026 -9.783251 10.621914 2.748800 -4.480000 4.184300 -86.242915 25.771472 28.813139 23.606928 -22.930057 -6.314263 2.018784 0.865274 11.995078 -7.125000 0.000000 0.000000 85.092590 -16.760900 39.895993 -20.166173 23.131102 -5.879124 1.313389 0.366548 22.370512 7.125000 0.000000 0.000000 
